<!DOCTYPE svg PUBLIC "-//W3C//DTD SVG 1.1//EN" "http://www.w3.org/Graphics/SVG/1.1/DTD/svg11.dtd">
<!-- Uploaded to: SVG Repo, www.svgrepo.com, Transformed by: SVG Repo Mixer Tools -->
<svg width="800px" height="800px" viewBox="-4.8 -4.8 57.60 57.60" xmlns="http://www.w3.org/2000/svg" fill="#ff0000" stroke="#ff0000" transform="matrix(1, 0, 0, 1, 0, 0)">
<g id="SVGRepo_bgCarrier" stroke-width="0"/>
<g id="SVGRepo_tracerCarrier" stroke-linecap="round" stroke-linejoin="round" stroke="#CCCCCC" stroke-width="0.192"/>
<g id="SVGRepo_iconCarrier"> <path d="M0 0h48v48H0z" fill="none"/> <g id="Shopicon"> <path d="M24,4C14.843,4,8,16.143,8,27c0,10.168,6.43,17,16,17s16-6.832,16-17C40,16.143,33.157,4,24,4z M24,8 c4.934,0,9.792,6.248,11.423,13.749L33,24.172l-3-3l-3,3l-3-3l-3,3l-3-3l-3,3l-2.423-2.423C14.208,14.248,19.066,8,24,8z M24,40 c-5.801,0-12-3.415-12-13c0-0.055,0.006-0.11,0.006-0.166L15,29.828l3-3l3,3l3-3l3,3l3-3l3,3l2.994-2.994 C35.994,26.89,36,26.945,36,27C36,36.585,29.801,40,24,40z"/> </g> </g>
</svg>